<svg xmlns="http://www.w3.org/2000/svg" height="512pt" version="1.1" viewBox="-9 0 512 512.00074" width="512pt">
<g id="surface1">
<path d="M 494.074219 212.246094 C 492.683594 204.390625 488.253906 197.394531 481.96875 192.480469 L 262.65625 21.101562 C 253.367188 13.839844 240.324219 13.851562 231.046875 21.125 L 12.476562 192.492188 C 6.214844 197.402344 1.804688 204.386719 0.410156 212.226562 C 0.15625 213.671875 0 215.121094 0 216.519531 L 0 496.902344 C 0 505.238281 6.761719 512 15.097656 512 L 479.382812 512 C 487.722656 512 494.480469 505.238281 494.480469 496.902344 L 494.480469 216.519531 C 494.480469 215.128906 494.328125 213.6875 494.074219 212.246094 Z M 494.074219 212.246094 " style=" stroke:none;fill-rule:nonzero;fill:rgb(94.901961%,94.901961%,94.901961%);fill-opacity:1;" />
<path d="M 494.480469 496.902344 L 494.480469 216.519531 C 494.480469 215.128906 494.328125 213.6875 494.074219 212.25 C 493.550781 209.277344 492.589844 206.433594 491.257812 203.773438 L 488.988281 204.867188 L 262.65625 381.738281 C 253.367188 388.996094 240.324219 388.988281 231.046875 381.710938 L 5.492188 204.867188 L 3.054688 204.117188 C 1.816406 206.671875 0.914062 209.394531 0.410156 212.226562 C 0.15625 213.671875 0 215.121094 0 216.519531 L 0 496.902344 C 0 505.242188 6.761719 512 15.097656 512 L 479.382812 512 C 487.722656 512 494.480469 505.238281 494.480469 496.902344 Z M 494.480469 496.902344 " style=" stroke:none;fill-rule:nonzero;fill:rgb(80.392157%,83.921569%,87.45098%);fill-opacity:1;" />
<path d="M 494.074219 212.25 C 493.550781 209.277344 492.589844 206.433594 491.257812 203.773438 L 488.988281 204.867188 L 439.378906 243.640625 L 439.378906 478.613281 C 439.378906 486.953125 432.617188 493.710938 424.277344 493.710938 L 0 493.710938 L 0 496.902344 C 0 505.242188 6.761719 512 15.097656 512 L 479.382812 512 C 487.722656 512 494.480469 505.242188 494.480469 496.902344 L 494.480469 216.519531 C 494.480469 215.128906 494.328125 213.6875 494.074219 212.25 Z M 494.074219 212.25 " style=" stroke:none;fill-rule:nonzero;fill:rgb(68.235294%,73.72549%,76.862745%);fill-opacity:1;" />
<path d="M 489.546875 508.042969 C 466.40625 488.351562 366.960938 403.808594 302.867188 350.316406 L 262.65625 381.738281 C 253.367188 388.996094 240.324219 388.984375 231.046875 381.710938 L 191.128906 350.414062 C 128.878906 402.007812 33.394531 482.558594 4.136719 507.265625 C 6.890625 510.175781 10.777344 512 15.101562 512 L 479.382812 512 C 483.304688 512 486.863281 510.492188 489.546875 508.042969 Z M 489.546875 508.042969 " style=" stroke:none;fill-rule:nonzero;fill:rgb(68.235294%,73.72549%,76.862745%);fill-opacity:1;" />
<path d="M 481.523438 511.832031 C 481.785156 511.792969 482.050781 511.761719 482.3125 511.710938 C 482.601562 511.652344 482.882812 511.578125 483.164062 511.503906 C 483.339844 511.457031 483.515625 511.417969 483.6875 511.367188 C 484.019531 511.269531 484.339844 511.152344 484.660156 511.03125 C 484.773438 510.992188 484.886719 510.953125 484.996094 510.910156 C 485.351562 510.765625 485.703125 510.605469 486.046875 510.433594 C 486.109375 510.402344 486.171875 510.375 486.234375 510.34375 C 486.605469 510.152344 486.96875 509.945312 487.324219 509.726562 C 487.351562 509.707031 487.378906 509.691406 487.40625 509.675781 C 487.777344 509.441406 488.140625 509.1875 488.492188 508.921875 C 488.496094 508.917969 488.503906 508.914062 488.507812 508.910156 C 488.867188 508.632812 489.214844 508.347656 489.546875 508.039062 C 481.128906 500.878906 462.613281 485.132812 439.378906 465.425781 L 439.378906 478.613281 C 439.378906 486.949219 432.617188 493.710938 424.277344 493.710938 L 20.195312 493.710938 C 13.710938 499.179688 8.265625 503.777344 4.136719 507.261719 C 4.824219 507.988281 5.582031 508.648438 6.402344 509.226562 C 6.402344 509.230469 6.402344 509.230469 6.40625 509.230469 C 6.800781 509.507812 7.207031 509.769531 7.628906 510.007812 C 7.648438 510.019531 7.667969 510.035156 7.6875 510.046875 C 8.085938 510.269531 8.496094 510.472656 8.914062 510.664062 C 8.960938 510.683594 9.007812 510.710938 9.054688 510.730469 C 9.445312 510.902344 9.847656 511.050781 10.253906 511.1875 C 10.332031 511.214844 10.410156 511.25 10.492188 511.277344 C 10.871094 511.398438 11.261719 511.496094 11.65625 511.585938 C 11.765625 511.613281 11.871094 511.648438 11.984375 511.671875 C 12.367188 511.753906 12.757812 511.808594 13.152344 511.859375 C 13.277344 511.875 13.398438 511.902344 13.523438 511.914062 C 14.039062 511.96875 14.566406 512 15.097656 512 L 479.382812 512 C 479.886719 512 480.382812 511.972656 480.875 511.921875 C 481.09375 511.902344 481.304688 511.863281 481.523438 511.832031 Z M 481.523438 511.832031 " style=" stroke:none;fill-rule:nonzero;fill:rgb(58.823529%,64.313725%,66.666667%);fill-opacity:1;" />
<path d="M 253.796875 310.433594 C 248.453125 299.304688 239.714844 303.5 234.367188 292.375 C 229.023438 281.25 237.757812 277.054688 232.414062 265.929688 C 227.066406 254.800781 218.332031 258.996094 212.980469 247.867188 C 207.632812 236.738281 216.371094 232.542969 211.023438 221.414062 C 207.753906 214.609375 202.03125 200.699219 197.78125 198.351562 L 159.742188 211.5625 L 209.757812 317.6875 C 214.660156 327.886719 226.898438 332.183594 237.097656 327.28125 L 249.988281 321.085938 C 253.925781 319.195312 255.71875 314.46875 253.84375 310.523438 C 253.828125 310.492188 253.8125 310.460938 253.796875 310.433594 Z M 253.796875 310.433594 " style=" stroke:none;fill-rule:nonzero;fill:rgb(23.529412%,33.72549%,40%);fill-opacity:1;" />
<path d="M 158.964844 239.820312 L 128.648438 253.660156 C 122.894531 256.285156 116.101562 253.75 113.476562 247.996094 L 100.800781 220.222656 C 98.175781 214.46875 100.710938 207.675781 106.460938 205.050781 L 136.78125 191.214844 C 140.339844 189.589844 144.542969 191.160156 146.167969 194.71875 L 162.46875 230.433594 C 164.09375 233.992188 162.523438 238.195312 158.964844 239.820312 Z M 158.964844 239.820312 " style=" stroke:none;fill-rule:nonzero;fill:rgb(23.529412%,33.72549%,40%);fill-opacity:1;" />
<path d="M 193.867188 146.707031 L 132.328125 174.792969 C 124.230469 178.488281 120.664062 188.046875 124.359375 196.148438 L 146.804688 245.328125 C 150.503906 253.425781 160.0625 256.992188 168.160156 253.296875 L 229.699219 225.210938 L 415.289062 208.523438 L 328.074219 17.433594 Z M 193.867188 146.707031 " style=" stroke:none;fill-rule:nonzero;fill:rgb(99.607843%,81.568627%,40%);fill-opacity:1;" />
<path d="M 209.25 174.4375 L 131.3125 211.382812 L 146.804688 245.328125 C 150.5 253.425781 160.0625 256.992188 168.160156 253.296875 L 229.695312 225.210938 L 415.289062 208.523438 L 389.214844 151.394531 Z M 209.25 174.4375 " style=" stroke:none;fill-rule:nonzero;fill:rgb(96.078431%,70.980392%,33.72549%);fill-opacity:1;" />
<path d="M 229.695312 225.210938 L 168.160156 253.296875 C 160.058594 256.992188 150.5 253.425781 146.804688 245.328125 L 124.355469 196.148438 C 120.660156 188.050781 124.226562 178.488281 132.328125 174.792969 L 193.863281 146.707031 Z M 229.695312 225.210938 " style=" stroke:none;fill-rule:nonzero;fill:rgb(93.333333%,33.72549%,27.45098%);fill-opacity:1;" />
<path d="M 131.3125 211.382812 L 146.804688 245.328125 C 149.578125 251.398438 155.648438 254.925781 161.925781 254.75 C 164.019531 254.691406 166.132812 254.222656 168.160156 253.296875 L 229.695312 225.210938 L 207.007812 175.5 Z M 131.3125 211.382812 " style=" stroke:none;fill-rule:nonzero;fill:rgb(84.705882%,24.313725%,22.745098%);fill-opacity:1;" />
<path d="M 426.25 217.359375 L 416.878906 221.636719 C 411.214844 224.222656 404.523438 221.726562 401.9375 216.058594 L 312.5625 20.238281 C 309.976562 14.574219 312.472656 7.882812 318.140625 5.296875 L 327.511719 1.019531 C 333.175781 -1.566406 339.867188 0.933594 342.453125 6.597656 L 431.828125 202.417969 C 434.414062 208.082031 431.917969 214.773438 426.25 217.359375 Z M 426.25 217.359375 " style=" stroke:none;fill-rule:nonzero;fill:rgb(93.333333%,33.72549%,27.45098%);fill-opacity:1;" />
<path d="M 431.828125 202.417969 L 413.519531 162.308594 L 383.632812 175.949219 L 401.9375 216.058594 C 404.523438 221.726562 411.214844 224.222656 416.878906 221.636719 L 426.25 217.359375 C 431.917969 214.773438 434.414062 208.082031 431.828125 202.417969 Z M 431.828125 202.417969 " style=" stroke:none;fill-rule:nonzero;fill:rgb(84.705882%,24.313725%,22.745098%);fill-opacity:1;" />
</g>
</svg>